<svg width="42" height="14" viewBox="0 0 42 14" fill="none" xmlns="http://www.w3.org/2000/svg">
<g clip-path="url(#clip0_108_782)">
<path d="M40.6922 8.556L41.8574 9.34508C41.4793 9.91092 40.5748 10.8817 39.011 10.8817C37.0692 10.8817 35.623 9.3555 35.623 7.41392C35.623 5.34783 37.0845 3.94617 38.8475 3.94617C40.6207 3.94617 41.4894 5.37892 41.7705 6.15242L41.9239 6.547L37.3554 8.46775C37.7029 9.16342 38.2446 9.51642 39.011 9.51642C39.7776 9.51642 40.309 9.13225 40.6922 8.556ZM37.1101 7.305L40.1609 6.0175C39.9922 5.58667 39.4915 5.28042 38.8935 5.28042C38.1321 5.28042 37.0743 5.96567 37.1101 7.305Z" fill="#FF302F"/>
<path d="M33.4199 0.410972H34.8916V10.5651H33.4199V0.410889V0.410972Z" fill="#20B15A"/>
<path d="M31.1 4.21612H32.5206V10.3834C32.5206 12.9426 31.0335 13.9965 29.2756 13.9965C27.62 13.9965 26.6235 12.8648 26.2504 11.946L27.5535 11.3956C27.7885 11.9615 28.3558 12.6312 29.2756 12.6312C30.4049 12.6312 31.1 11.92 31.1 10.591V10.0927H31.0489C30.7115 10.508 30.0677 10.8817 29.2501 10.8817C27.5433 10.8817 25.9795 9.37104 25.9795 7.42437C25.9795 5.46721 27.5433 3.94104 29.2501 3.94104C30.0626 3.94104 30.7115 4.30962 31.0489 4.71454H31.1V4.21621V4.21612ZM31.2021 7.42437C31.2021 6.19921 30.3998 5.30629 29.3778 5.30629C28.3455 5.30629 27.4768 6.19921 27.4768 7.42437C27.4768 8.63387 28.3455 9.51121 29.3778 9.51121C30.3999 9.51646 31.2022 8.63387 31.2022 7.42437H31.2021Z" fill="#3686F7"/>
<path d="M17.9004 7.39833C17.9004 9.397 16.3674 10.8661 14.4868 10.8661C12.6063 10.8661 11.0732 9.39183 11.0732 7.39833C11.0732 5.38933 12.6063 3.92542 14.4868 3.92542C16.3674 3.92542 17.9004 5.38933 17.9004 7.39833ZM16.4082 7.39833C16.4082 6.1525 15.519 5.29583 14.4868 5.29583C13.4546 5.29583 12.5654 6.1525 12.5654 7.39833C12.5654 8.63383 13.4546 9.50083 14.4868 9.50083C15.5191 9.50083 16.4082 8.63383 16.4082 7.39833Z" fill="#FF302F"/>
<path d="M25.3564 7.41392C25.3564 9.41258 23.8233 10.8817 21.9429 10.8817C20.0623 10.8817 18.5293 9.4125 18.5293 7.41392C18.5293 5.40492 20.0623 3.94617 21.9429 3.94617C23.8233 3.94617 25.3564 5.39975 25.3564 7.41392ZM23.8591 7.41392C23.8591 6.16808 22.97 5.31142 21.9377 5.31142C20.9055 5.31142 20.0163 6.16808 20.0163 7.41392C20.0163 8.64942 20.9055 9.51642 21.9377 9.51642C22.9751 9.51642 23.8591 8.64425 23.8591 7.41392Z" fill="#FFBA40"/>
<path d="M5.46198 9.36065C3.3208 9.36065 1.64473 7.60598 1.64473 5.43082C1.64473 3.25573 3.3208 1.50107 5.46198 1.50107C6.61689 1.50107 7.46001 1.96307 8.08345 2.5549L9.11064 1.51148C8.24193 0.665318 7.08193 0.0214844 5.46198 0.0214844C2.52878 0.0215677 0.0605469 2.45115 0.0605469 5.43082C0.0605469 8.41065 2.52878 10.8402 5.46198 10.8402C7.04616 10.8402 8.24193 10.3106 9.17709 9.32432C10.1378 8.34832 10.4341 6.97782 10.4341 5.8669C10.4341 5.51907 10.3933 5.1609 10.3473 4.89615H5.46198V6.33932H8.94199C8.83978 7.24265 8.55874 7.8604 8.14481 8.28082C7.64401 8.79482 6.852 9.36065 5.46198 9.36065Z" fill="#3686F7"/>
</g>
<defs>
<clipPath id="clip0_108_782">
<rect width="42" height="14" fill="white"/>
</clipPath>
</defs>
</svg>
